<svg xmlns="http://www.w3.org/2000/svg" xmlns:xlink="http://www.w3.org/1999/xlink" width="133.557" height="96.708" viewBox="0 0 133.557 96.708"><defs><path id="a" d="M12.492 9.144h108.573v78.421h-108.573z"/></defs><clipPath id="b"><use xlink:href="#a" overflow="visible"/></clipPath><path clip-path="url(#b)" d="M67.615 43.757c-6.068 0-10.989-4.741-10.989-10.592 0-5.857 4.921-10.6 10.989-10.6 6.071 0 10.991 4.742 10.991 10.6 0 5.851-4.92 10.592-10.991 10.592m0-30.115c-11.183 0-20.241 8.738-20.241 19.523 0 10.778 9.059 19.517 20.241 19.517 11.184 0 20.249-8.738 20.249-19.517 0-10.785-9.065-19.523-20.249-19.523M104.653 13.95c-1.104 0-2.199.098-3.27.307-6.969 1.322-10.588 7.841-9.563 14.167 1.361 7.653 9.434 6.672 14.354 9.919 2.348 1.546 1.23 4.851-1.174 5.652-.721.238-1.461.346-2.205.346-3.07 0-6.217-1.823-8.387-3.728l-4.127 7.564c3.393 2.803 8.637 4.179 13.313 4.179 1.188 0 2.34-.089 3.414-.266 7.307-1.193 12.246-9.007 9.752-16.219-1.707-4.914-6.385-6.05-10.771-7.385-1.426-.436-3.17-1.097-3.947-2.47-.936-1.643.277-3.445 1.9-3.965.584-.186 1.174-.268 1.758-.268 2.229 0 4.426 1.183 6.25 2.347l3.854-7.23c-3.335-1.755-7.288-2.95-11.151-2.95"/><path clip-path="url(#b)" d="M28.717 70.203h-3.053l-2.6 6.37-2.482-6.37h-3.054l-2.059 12.068h3.117l1.002-6.917 2.765 6.917h1.29l2.899-6.987.931 6.987h3.125zM32.304 70.203h3.073v12.067h-3.073zM45.058 70.203h-8.25l.006 2.669h2.508v9.399h3.189v-9.464h2.547zM59.121 70.221h-3.055l-2.603 6.378-2.477-6.378h-3.06l-2.06 12.075h3.118l1.001-6.922 2.766 6.922h1.296l2.893-6.986.937 6.986h3.124zM69.463 70.203h-6.858v12.068h6.858v-2.734h-3.727v-2.047h3.511v-2.571h-3.524v-2.053h3.74zM83.784 70.203h-3.182v7.276l-5.697-7.276h-3.145v12.068h3.094v-7.404l5.697 7.404h3.233zM90.383 69.924c-.357 0-.715.03-1.063.099-2.283.438-3.465 2.566-3.131 4.633.449 2.508 3.086 2.181 4.695 3.246.771.507.406 1.585-.385 1.848-.234.078-.475.112-.717.112-1.004 0-2.033-.596-2.746-1.216l-1.348 2.47c1.105.919 2.813 1.366 4.34 1.366.393 0 .775-.03 1.131-.09 2.387-.384 4.004-2.938 3.184-5.299-.553-1.61-2.088-1.982-3.516-2.419-.469-.141-1.041-.359-1.297-.808-.301-.539.09-1.123.623-1.289.191-.063.385-.09.578-.09.729 0 1.447.388 2.039.763l1.264-2.36c-1.086-.576-2.385-.966-3.651-.966M102.28 69.9c-3.611 0-6.537 2.817-6.537 6.301s2.926 6.307 6.537 6.307c.926 0 1.795-.192 2.6-.525v-3.876c-.625.771-1.584 1.271-2.676 1.271-1.861 0-3.377-1.463-3.377-3.259 0-1.804 1.516-3.26 3.377-3.26 1.092 0 2.051.501 2.676 1.264v-3.694c-.805-.342-1.674-.529-2.6-.529"/><path clip-path="url(#b)" d="M117.954 70.203h-3.118v4.664h-4.541v-4.664h-3.017v12.068h3.041v-4.94h4.535v4.94h3.1z"/><path clip-path="url(#b)" fill="#C90C0F" d="M115.12 58.347h-96.873c-1.655 0-2.997 1.257-2.997 2.816 0 1.553 1.342 2.816 2.997 2.816h96.873c1.654 0 2.994-1.264 2.994-2.816 0-1.559-1.34-2.816-2.994-2.816"/><path clip-path="url(#b)" d="M31.537 14.056c-1.107 0-2.207.099-3.281.311-6.969 1.321-10.593 7.84-9.561 14.159 1.36 7.661 9.432 6.679 14.352 9.919 2.35 1.546 1.232 4.851-1.174 5.653-.721.24-1.463.349-2.209.349-3.07 0-6.22-1.826-8.383-3.73l-4.125 7.563c3.387 2.81 8.635 4.187 13.311 4.187 1.189 0 2.341-.09 3.415-.267 7.307-1.2 12.241-9.009 9.745-16.22-1.7-4.914-6.377-6.056-10.766-7.391-1.43-.43-3.169-1.097-3.951-2.464-.932-1.648.281-3.451 1.904-3.965.584-.186 1.171-.268 1.758-.268 2.225 0 4.426 1.183 6.243 2.34l3.856-7.224c-3.323-1.758-7.276-2.952-11.134-2.952"/><path fill="#C90C0F" d="M110.715 96.708h-87.873c-12.595 0-22.842-10.247-22.842-22.843v-51.022c0-12.596 10.247-22.843 22.842-22.843h87.874c12.596 0 22.842 10.247 22.842 22.843v51.022c-.001 12.596-10.247 22.843-22.843 22.843zm-87.873-90.708c-9.287 0-16.842 7.556-16.842 16.843v51.022c0 9.287 7.555 16.843 16.842 16.843h87.874c9.287 0 16.842-7.556 16.842-16.843v-51.022c0-9.287-7.555-16.843-16.842-16.843h-87.874z"/></svg>